# xmcd
#
# Track frame offsets:
#	150
#	14566
#	27000
#	39122
#	50829
#	63272
#	74167
#	87811
#	101741
#	112220
#	122048
#	137231
#	150669
#	163539
#	173629
#	181874
#
# Disc length: 2610 seconds
#
# Revision: 0
# Processed by: cddbd v1.4PL0 Copyright (c) Steve Scherf et al.
# Submitted via: EasyCDDAExtractor 5.0.5.1
#
DISCID=d90a3010
DTITLE=Willie Nelson - The Legend
DYEAR=1998
DGENRE=Country
TTITLE0=Will You Remember Mine
TTITLE1=Shelter Of My Arms
TTITLE2=I Hope So
TTITLE3=Is There Something On Your Mind
TTITLE4=I Can't Find The Time
TTITLE5=Go Away
TTITLE6=Everything But You
TTITLE7=No Tomorrow In Sight
TTITLE8=Broken Promises
TTITLE9=Let's Pretend
TTITLE10=Face Of A Fighter
TTITLE11=You'll Always Have Someone
TTITLE12=Any Old Arms Won't Do
TTITLE13=I Didn't Sleep A Wink
TTITLE14=Half A Man
TTITLE15=Home Is Where You're Happy
EXTD=
EXTT0=
EXTT1=
EXTT2=
EXTT3=
EXTT4=
EXTT5=
EXTT6=
EXTT7=
EXTT8=
EXTT9=
EXTT10=
EXTT11=
EXTT12=
EXTT13=
EXTT14=
EXTT15=
PLAYORDER=
